<svg xmlns="http://www.w3.org/2000/svg" width="20" height="20" viewBox="0 0 20 20" fill="none">
  <path fill-rule="evenodd" clip-rule="evenodd" d="M10 3.25024C6.27208 3.25024 3.25 6.27232 3.25 10.0002C3.25 13.7282 6.27208 16.7502 10 16.7502C13.7279 16.7502 16.75 13.7282 16.75 10.0002C16.75 6.27232 13.7279 3.25024 10 3.25024ZM1.75 10.0002C1.75 5.44389 5.44365 1.75024 10 1.75024C14.5563 1.75024 18.25 5.44389 18.25 10.0002C18.25 14.5566 14.5563 18.2502 10 18.2502C5.44365 18.2502 1.75 14.5566 1.75 10.0002ZM10 5.91691C10.4142 5.91691 10.75 6.2527 10.75 6.66691V9.16691C10.75 9.58112 10.4142 9.91691 10 9.91691C9.58579 9.91691 9.25 9.58112 9.25 9.16691V6.66691C9.25 6.2527 9.58579 5.91691 10 5.91691ZM10.75 11.6669C10.75 11.2527 10.4142 10.9169 10 10.9169C9.58579 10.9169 9.25 11.2527 9.25 11.6669V12.5002C9.25 12.9145 9.58579 13.2502 10 13.2502C10.4142 13.2502 10.75 12.9145 10.75 12.5002V11.6669Z" fill="#202020"/>
</svg>