<svg xmlns="http://www.w3.org/2000/svg" width="20" height="20" viewBox="0 0 20 20" fill="none">
  <g clip-path="url(#clip0_272_11770)">
    <path d="M1.66663 10C1.66663 10.8766 1.81701 11.7181 2.09339 12.5M2.09339 12.5H9.16663M2.09339 12.5C3.12298 15.413 5.90108 17.5 9.16663 17.5C7.87981 17.5 6.82006 14.5833 6.68188 10.8333M10.8447 7.5H17.9179M17.9179 7.5C16.8883 4.58702 14.1102 2.5 10.8447 2.5C12.1788 2.5 13.2688 5.63501 13.3409 9.58333M17.9179 7.5C18.1502 8.15722 18.2935 8.8565 18.3333 9.58333" stroke="#414141" stroke-width="1.5" stroke-linecap="round" stroke-linejoin="round"/>
    <path d="M1.66663 4.41453C1.66663 3.49922 1.66663 3.04157 1.82278 2.68666C1.98838 2.31027 2.2738 2.00776 2.62893 1.83225C2.9638 1.66675 3.39561 1.66675 4.25922 1.66675H4.99996C6.57131 1.66675 7.35698 1.66675 7.84513 2.18412C8.33329 2.7015 8.33329 3.53421 8.33329 5.19961V7.08217C8.33329 7.80863 8.33329 8.17186 8.11323 8.29668C7.89318 8.4215 7.60802 8.22001 7.03771 7.81705L6.95082 7.75566C6.53401 7.46116 6.32561 7.3139 6.08942 7.23811C5.85323 7.16231 5.60276 7.16231 5.10182 7.16231H4.25922C3.39561 7.16231 2.9638 7.16231 2.62893 6.99681C2.2738 6.82131 1.98838 6.51879 1.82278 6.14241C1.66663 5.78749 1.66663 5.32984 1.66663 4.41453Z" stroke="#414141" stroke-width="1.5"/>
    <path d="M18.3333 14.4145C18.3333 13.4992 18.3333 13.0416 18.1771 12.6867C18.0115 12.3102 17.7261 12.0077 17.371 11.8322C17.0361 11.6667 16.6043 11.6667 15.7407 11.6667H15C13.4286 11.6667 12.643 11.6667 12.1548 12.1842C11.6666 12.7015 11.6666 13.5342 11.6666 15.1996V17.0822C11.6666 17.8087 11.6666 18.1718 11.8867 18.2967C12.1067 18.4215 12.3919 18.22 12.9622 17.8171L13.0491 17.7557C13.4659 17.4612 13.6743 17.3139 13.9105 17.2381C14.1467 17.1623 14.3971 17.1623 14.8981 17.1623H15.7407C16.6043 17.1623 17.0361 17.1623 17.371 16.9968C17.7261 16.8213 18.0115 16.5188 18.1771 16.1424C18.3333 15.7875 18.3333 15.3298 18.3333 14.4145Z" stroke="#414141" stroke-width="1.5"/>
  </g>
  <defs>
    <clipPath id="clip0_272_11770">
      <rect width="20" height="20" fill="white"/>
    </clipPath>
  </defs>
</svg>