<svg xmlns="http://www.w3.org/2000/svg" width="34" height="34" viewBox="0 0 34 34" fill="none">
  <path d="M19.7641 3.31068L22.5798 8.9886C22.9638 9.77899 23.9877 10.5371 24.8517 10.6823L29.955 11.5372C33.2187 12.0856 33.9867 14.473 31.6349 16.828L27.6673 20.8283C26.9953 21.5058 26.6275 22.8123 26.8353 23.748L27.9713 28.7C28.8672 32.6197 26.8033 34.136 23.3638 32.0874L18.5803 29.2323C17.7165 28.7162 16.2926 28.7162 15.4126 29.2323L10.6292 32.0874C7.20559 34.136 5.12584 32.6035 6.02174 28.7L7.15761 23.748C7.36558 22.8123 6.99763 21.5058 6.32569 20.8283L2.35814 16.828C0.0223995 14.473 0.774319 12.0856 4.03795 11.5372L9.14139 10.6823C9.98929 10.5371 11.0132 9.77899 11.3971 8.9886L14.2128 3.31068C15.7486 0.229772 18.2443 0.229772 19.7641 3.31068Z" stroke="#BBBABA" stroke-linecap="round" stroke-linejoin="round"/>
</svg>