<svg xmlns="http://www.w3.org/2000/svg" width="20" height="20" viewBox="0 0 20 20" fill="none">
  <path d="M3.33333 14.9841V8.08969C3.33333 5.06188 3.33333 3.54798 4.30964 2.60736C5.28595 1.66675 6.85729 1.66675 9.99999 1.66675C13.1427 1.66675 14.7141 1.66675 15.6903 2.60736C16.6667 3.54798 16.6667 5.06188 16.6667 8.08969V14.9841C16.6667 16.9057 16.6667 17.8664 16.0227 18.2103C14.7754 18.8762 12.436 16.6544 11.325 15.9854C10.6807 15.5974 10.3585 15.4034 9.99999 15.4034C9.64149 15.4034 9.31933 15.5974 8.67499 15.9854C7.56399 16.6544 5.22455 18.8762 3.97737 18.2103C3.33333 17.8664 3.33333 16.9057 3.33333 14.9841Z" stroke="#414141" stroke-width="1.5" stroke-linecap="round" stroke-linejoin="round"/>
</svg>