<svg xmlns="http://www.w3.org/2000/svg" width="20" height="20" viewBox="0 0 20 20" fill="none">
  <g clip-path="url(#clip0_236_8718)">
    <path d="M1.66666 11.0001V8.77219L2.11486 7.04488C3.61426 3.08739 7.91916 0.833345 12.1163 1.95403C16.5867 3.14768 19.242 7.71764 18.0471 12.1613C16.8522 16.6051 12.2597 19.2397 7.78932 18.0462C4.47015 17.1598 2.15159 14.4123 1.66666 11.2371" fill="black"/>
    <path d="M1.66666 11.0001V8.77219L2.11486 7.04488C3.61426 3.08739 7.91916 0.833345 12.1163 1.95403C16.5867 3.14768 19.242 7.71764 18.0471 12.1613C16.8522 16.6051 12.2597 19.2397 7.78932 18.0462C4.47015 17.1598 2.15159 14.4123 1.66666 11.2371" stroke="black" stroke-width="1.5" stroke-linecap="round" stroke-linejoin="round"/>
    <path d="M10 6.66675V10.0001L11.6667 11.6667" stroke="white" stroke-width="1.5" stroke-linecap="round" stroke-linejoin="round"/>
  </g>
  <defs>
    <clipPath id="clip0_236_8718">
      <rect width="20" height="20" fill="white"/>
    </clipPath>
  </defs>
</svg>