<svg xmlns="http://www.w3.org/2000/svg" width="20" height="20" viewBox="0 0 20 20" fill="none">
  <path d="M4.31668 12.7473C3.2687 13.3616 0.520969 14.6158 2.19452 16.1853C3.01204 16.952 3.92254 17.5003 5.06727 17.5003H11.5993C12.744 17.5003 13.6545 16.952 14.472 16.1853C16.1456 14.6158 13.3979 13.3616 12.3499 12.7473C9.89238 11.3069 6.77418 11.3069 4.31668 12.7473Z" stroke="#414141" stroke-width="1.5" stroke-linecap="round" stroke-linejoin="round"/>
  <path d="M11.6667 5.83358C11.6667 7.67453 10.1742 9.16691 8.33333 9.16691C6.49238 9.16691 5 7.67453 5 5.83358C5 3.99263 6.49238 2.50024 8.33333 2.50024C10.1742 2.50024 11.6667 3.99263 11.6667 5.83358Z" stroke="#414141" stroke-width="1.5"/>
  <path d="M18.3333 3.75024L16.25 5.83358M16.25 5.83358L14.1666 7.91691M16.25 5.83358L18.3333 7.91691M16.25 5.83358L14.1666 3.75024" stroke="#414141" stroke-width="1.5" stroke-linecap="round" stroke-linejoin="round"/>
</svg>