<svg xmlns="http://www.w3.org/2000/svg" width="20" height="20" viewBox="0 0 20 20" fill="none">
  <g clip-path="url(#clip0_294_12325)">
    <path d="M18.3333 9.639C18.3333 14.0417 14.6018 17.6112 10 17.6112C9.45892 17.612 8.91934 17.5619 8.38784 17.4622C8.00528 17.3902 7.81399 17.3543 7.68045 17.3747C7.5469 17.3952 7.35766 17.4957 6.97916 17.6971C5.90846 18.2665 4.65996 18.4676 3.45926 18.2442C3.91562 17.6829 4.2273 17.0094 4.36482 16.2874C4.44816 15.8457 4.24167 15.4167 3.93241 15.1027C2.52778 13.6763 1.66667 11.7543 1.66667 9.639C1.66667 5.23639 5.39815 1.66675 10 1.66675C14.6018 1.66675 18.3333 5.23639 18.3333 9.639Z" stroke="black" stroke-width="1.5" stroke-linejoin="round"/>
    <path d="M8.33333 8.20521C8.33333 7.35554 9.07949 6.66675 9.99999 6.66675C10.9205 6.66675 11.6667 7.35554 11.6667 8.20521C11.6667 8.5115 11.5697 8.79683 11.4026 9.03658C10.9045 9.75108 9.99999 10.4325 9.99999 11.2822V11.6667" stroke="black" stroke-width="1.5" stroke-linecap="round"/>
    <path d="M10 13.75H10.0075" stroke="black" stroke-width="1.5" stroke-linecap="round" stroke-linejoin="round"/>
  </g>
  <defs>
    <clipPath id="clip0_294_12325">
      <rect width="20" height="20" fill="white"/>
    </clipPath>
  </defs>
</svg>