<svg width="55" height="24" viewBox="0 0 55 24" fill="none" xmlns="http://www.w3.org/2000/svg">
<g id="Company logo">
<path id="Vector" d="M23.479 12.8251C23.479 15.4867 21.4521 17.448 18.9646 17.448C16.4771 17.448 14.4502 15.4867 14.4502 12.8251C14.4502 10.1447 16.4771 8.20215 18.9646 8.20215C21.4521 8.20215 23.479 10.1447 23.479 12.8251ZM21.5028 12.8251C21.5028 11.1618 20.328 10.0238 18.9646 10.0238C17.6011 10.0238 16.4264 11.1618 16.4264 12.8251C16.4264 14.4716 17.6011 15.6263 18.9646 15.6263C20.328 15.6263 21.5028 14.4696 21.5028 12.8251Z" fill="#EA4335"/>
<path id="Vector_2" d="M33.2173 12.8251C33.2173 15.4867 31.1903 17.448 28.7029 17.448C26.2154 17.448 24.1885 15.4867 24.1885 12.8251C24.1885 10.1468 26.2154 8.20215 28.7029 8.20215C31.1903 8.20215 33.2173 10.1447 33.2173 12.8251ZM31.2411 12.8251C31.2411 11.1618 30.0663 10.0238 28.7029 10.0238C27.3394 10.0238 26.1647 11.1618 26.1647 12.8251C26.1647 14.4716 27.3394 15.6263 28.7029 15.6263C30.0663 15.6263 31.2411 14.4696 31.2411 12.8251Z" fill="#FBBC05"/>
<path id="Vector_3" d="M42.5509 8.48144V16.781C42.5509 20.1951 40.5909 21.5894 38.2739 21.5894C36.0928 21.5894 34.78 20.0908 34.285 18.8653L36.0055 18.1295C36.3119 18.882 37.0626 19.7699 38.2718 19.7699C39.755 19.7699 40.6741 18.8299 40.6741 17.0603V16.3954H40.6051C40.1628 16.9561 39.3107 17.4459 38.2353 17.4459C35.9852 17.4459 33.9238 15.4325 33.9238 12.8417C33.9238 10.2322 35.9852 8.20215 38.2353 8.20215C39.3086 8.20215 40.1608 8.69195 40.6051 9.23595H40.6741V8.48353H42.5509V8.48144ZM40.8141 12.8417C40.8141 11.2139 39.757 10.0238 38.4118 10.0238C37.0484 10.0238 35.9061 11.2139 35.9061 12.8417C35.9061 14.4529 37.0484 15.6263 38.4118 15.6263C39.757 15.6263 40.8141 14.4529 40.8141 12.8417Z" fill="#4285F4"/>
<path id="Vector_4" d="M45.6443 3.61682V17.1646H43.7168V3.61682H45.6443Z" fill="#34A853"/>
<path id="Vector_5" d="M53.1559 14.3466L54.6898 15.3971C54.1947 16.1495 53.0017 17.4459 50.9403 17.4459C48.3838 17.4459 46.4746 15.4158 46.4746 12.823C46.4746 10.0738 48.4001 8.20007 50.7191 8.20007C53.0545 8.20007 54.1967 10.1093 54.5701 11.141L54.775 11.6662L48.7592 14.2257C49.2198 15.1532 49.936 15.6263 50.9403 15.6263C51.9467 15.6263 52.6446 15.1178 53.1559 14.3466ZM48.4346 12.6833L52.4559 10.968C52.2348 10.3906 51.5693 9.98838 50.7861 9.98838C49.7818 9.98838 48.3838 10.8992 48.4346 12.6833Z" fill="#EA4335"/>
<path id="Vector_6" d="M7.15349 11.6224V9.66107H13.5873C13.6502 10.0029 13.6826 10.4072 13.6826 10.8449C13.6826 12.3164 13.291 14.136 12.029 15.4324C10.8015 16.7455 9.23315 17.4458 7.15552 17.4458C3.30459 17.4458 0.0664062 14.2235 0.0664062 10.2676C0.0664062 6.31164 3.30459 3.08936 7.15552 3.08936C9.2859 3.08936 10.8036 3.94808 11.9438 5.06733L10.5966 6.45129C9.77894 5.66343 8.67114 5.05066 7.15349 5.05066C4.34138 5.05066 2.14201 7.37879 2.14201 10.2676C2.14201 13.1564 4.34138 15.4845 7.15349 15.4845C8.97751 15.4845 10.0163 14.7321 10.6818 14.0485C11.2215 13.4941 11.5766 12.702 11.7166 11.6203L7.15349 11.6224Z" fill="#4285F4"/>
</g>
</svg>
