<svg xmlns="http://www.w3.org/2000/svg" width="20" height="21" viewBox="0 0 20 21" fill="none">
  <path d="M1.72144 10.4276C1.81764 9.90283 2.24078 9.36633 2.92363 8.90325C4.15315 8.06937 5.55742 8.0728 6.96299 8.02076C7.42947 8.00347 8.68202 7.99777 10 8.00076C11.318 7.99777 12.5706 8.00347 13.037 8.02076C14.4426 8.0728 15.8469 8.06937 17.0764 8.90325C17.7593 9.36633 18.1824 9.90283 18.2786 10.4276C18.3612 10.878 18.3484 12.4237 18.2532 13.5144C18.2029 14.0894 18.1519 14.3693 18.0755 14.487C17.8453 14.8419 17.1805 15.1404 16.2027 15.3278C15.285 15.5038 15.4214 15.5 10 15.5C4.57857 15.5 4.71503 15.5038 3.79738 15.3278C2.81951 15.1404 2.15479 14.8419 1.92452 14.487C1.84822 14.3693 1.79709 14.0894 1.74685 13.5144C1.65159 12.4237 1.63885 10.878 1.72144 10.4276Z" stroke="black" stroke-width="1.2" stroke-linecap="round" stroke-linejoin="round"/>
  <path d="M3.75 8L4.84438 4.24176C4.94489 3.99174 5.14025 3.78292 5.41557 3.6893C8.11805 2.77023 11.8819 2.77023 14.5844 3.6893C14.8598 3.78292 15.0551 3.99174 15.1557 4.24176L16.25 8" stroke="black" stroke-width="1.2" stroke-linecap="round" stroke-linejoin="round"/>
  <path d="M2.08331 10.5L3.33331 10.9167" stroke="black" stroke-width="1.2" stroke-linecap="round" stroke-linejoin="round"/>
  <path d="M17.9167 10.5L16.6667 10.9167" stroke="black" stroke-width="1.5" stroke-linecap="round" stroke-linejoin="round"/>
  <path d="M6.66669 15.0833L6.87141 14.5715C7.17586 13.8104 7.32809 13.4298 7.64553 13.2149C7.96296 13 8.37285 13 9.1926 13H10.8074C11.6272 13 12.0371 13 12.3545 13.2149C12.6719 13.4298 12.8242 13.8104 13.1286 14.5715L13.3334 15.0833" stroke="black" stroke-width="1.2" stroke-linecap="round" stroke-linejoin="round"/>
  <path d="M5.83467 15.9686V16.637C5.83472 17.3657 5.80281 17.5022 5.58285 17.7149C5.51848 17.7771 5.38766 17.8668 5.29218 17.9141C5.12499 17.9968 5.06891 18 3.77306 18C2.4481 18 2.4244 17.9986 2.22023 17.9063C2.10616 17.8547 1.96228 17.7518 1.90048 17.6773C1.68233 17.4148 1.67196 17.3374 1.66992 15.9549L1.67048 13" stroke="black" stroke-width="1.2" stroke-linecap="round"/>
  <path d="M14.1653 15.9686V16.637C14.1653 17.3657 14.1972 17.5022 14.4172 17.7149C14.4815 17.7771 14.6123 17.8668 14.7078 17.9141C14.875 17.9968 14.9311 18 16.2269 18C17.5519 18 17.5756 17.9986 17.7798 17.9063C17.8938 17.8547 18.0378 17.7518 18.0995 17.6773C18.3177 17.4148 18.328 17.3374 18.3301 15.9549L18.3295 13" stroke="black" stroke-width="1.2" stroke-linecap="round"/>
  <path d="M16.6667 7.99992L17.9167 7.58325" stroke="black" stroke-width="1.2" stroke-linecap="round" stroke-linejoin="round"/>
  <path d="M3.33331 7.99992L2.08331 7.58325" stroke="black" stroke-width="1.2" stroke-linecap="round" stroke-linejoin="round"/>
</svg>