<svg xmlns="http://www.w3.org/2000/svg" width="25" height="24" viewBox="0 0 25 24" fill="none">
  <path d="M12.5 14.0466C10.2927 13.8404 8.03058 14.3187 6.07757 15.4816C4.6628 16.324 0.953366 18.0441 3.21266 20.1966C4.31631 21.248 5.54549 22 7.09087 22H13.5" stroke="#231F20" stroke-width="1.5" stroke-linecap="round" stroke-linejoin="round"/>
  <path d="M16 6.5C16 8.98528 13.9853 11 11.5 11C9.01472 11 7 8.98528 7 6.5C7 4.01472 9.01472 2 11.5 2C13.9853 2 16 4.01472 16 6.5Z" stroke="#231F20" stroke-width="1.5"/>
  <path d="M18.4992 14C17.2328 14 16.4117 14.8076 15.4405 15.102C15.0456 15.2217 14.8482 15.2815 14.7683 15.3659C14.6884 15.4502 14.665 15.5735 14.6182 15.8201C14.1174 18.4584 15.212 20.8976 17.8222 21.847C18.1027 21.949 18.2429 22 18.5006 22C18.7583 22 18.8986 21.949 19.179 21.847C21.7891 20.8976 22.8826 18.4584 22.3817 15.8201C22.3349 15.5735 22.3114 15.4502 22.2315 15.3658C22.1516 15.2814 21.9542 15.2216 21.5593 15.102C20.5878 14.8077 19.7657 14 18.4992 14Z" stroke="#231F20" stroke-width="1.5" stroke-linecap="round" stroke-linejoin="round"/>
</svg>