<svg xmlns="http://www.w3.org/2000/svg" width="20" height="20" viewBox="0 0 20 20" fill="none">
  <path d="M12.5 14.6877C12.4387 16.231 11.1526 17.5414 9.42967 17.4992C9.02883 17.4894 8.53342 17.3497 7.5426 17.0702C5.15801 16.3976 3.08796 15.2672 2.5913 12.7348C2.5 12.2694 2.5 11.7456 2.5 10.698V9.30249C2.5 8.25492 2.5 7.73112 2.5913 7.26563C3.08796 4.73328 5.15801 3.60288 7.5426 2.93027C8.53342 2.65078 9.02883 2.51103 9.42967 2.50123C11.1526 2.45908 12.4387 3.76947 12.5 5.31275" stroke="#F5222D" stroke-width="1.5" stroke-linecap="round"/>
  <path d="M17.5 10.0003H8.33337M17.5 10.0003C17.5 9.41683 15.8381 8.3266 15.4167 7.91699M17.5 10.0003C17.5 10.5838 15.8381 11.6741 15.4167 12.0837" stroke="#F5222D" stroke-width="1.5" stroke-linecap="round" stroke-linejoin="round"/>
</svg>