<svg xmlns="http://www.w3.org/2000/svg" width="16" height="16" viewBox="0 0 16 16" fill="none">
  <g clip-path="url(#clip0_260_10045)">
    <path d="M14.0004 2L9.66708 14C9.63783 14.0638 9.59087 14.1179 9.53178 14.1558C9.47269 14.1938 9.40396 14.2139 9.33375 14.2139C9.26354 14.2139 9.1948 14.1938 9.13571 14.1558C9.07662 14.1179 9.02966 14.0638 9.00041 14L6.66708 9.33333L2.00041 7C1.93659 6.97075 1.8825 6.92379 1.84458 6.8647C1.80666 6.80561 1.7865 6.73688 1.7865 6.66667C1.7865 6.59646 1.80666 6.52772 1.84458 6.46863C1.8825 6.40954 1.93659 6.36258 2.00041 6.33333L14.0004 2Z" stroke="#414141" stroke-width="1.5" stroke-linecap="round" stroke-linejoin="round"/>
  </g>
  <defs>
    <clipPath id="clip0_260_10045">
      <rect width="16" height="16" fill="white"/>
    </clipPath>
  </defs>
</svg>