<svg xmlns="http://www.w3.org/2000/svg" width="18" height="18" viewBox="0 0 18 18" fill="none">
  <path d="M6.63206 3.76019L6.29651 3.00521C6.07711 2.51157 5.96741 2.26473 5.80336 2.07584C5.59775 1.83912 5.32974 1.66495 5.02991 1.57321C4.79067 1.5 4.52056 1.5 3.98036 1.5C3.19011 1.5 2.79498 1.5 2.46329 1.65191C2.07257 1.83085 1.71971 2.2194 1.57912 2.6255C1.45977 2.97024 1.49396 3.32453 1.56233 4.03308C2.29011 11.5752 6.42503 15.7101 13.9671 16.4378C14.6756 16.5062 15.03 16.5404 15.3746 16.4211C15.7808 16.2805 16.1693 15.9276 16.3483 15.5369C16.5001 15.2052 16.5001 14.8101 16.5001 14.0198C16.5001 13.4796 16.5001 13.2095 16.427 12.9702C16.3352 12.6704 16.1611 12.4024 15.9243 12.1968C15.7355 12.0327 15.4886 11.9231 14.995 11.7037L14.24 11.3681C13.7054 11.1305 13.4381 11.0117 13.1665 10.9859C12.9065 10.9612 12.6444 10.9977 12.4011 11.0924C12.1468 11.1914 11.9221 11.3787 11.4726 11.7532C11.0253 12.126 10.8016 12.3124 10.5283 12.4122C10.286 12.5007 9.96565 12.5336 9.71048 12.4959C9.42256 12.4535 9.20215 12.3358 8.76123 12.1001C7.38956 11.3671 6.63312 10.6107 5.90007 9.23892C5.66446 8.79808 5.54666 8.57758 5.50424 8.28975C5.46663 8.0345 5.49941 7.71417 5.58793 7.47192C5.68778 7.19857 5.87419 6.97488 6.24701 6.5275C6.62153 6.07807 6.8088 5.85335 6.90781 5.59909C7.00256 5.35578 7.03903 5.09367 7.01431 4.83373C6.98846 4.5621 6.86966 4.2948 6.63206 3.76019Z" stroke="black" stroke-width="1.2" stroke-linecap="round"/>
</svg>