<svg xmlns="http://www.w3.org/2000/svg" width="20" height="20" viewBox="0 0 20 20" fill="none">
  <path d="M9.99854 1.66699C7.49207 1.66699 5.86686 3.34948 3.9448 3.96274C3.16328 4.2121 2.77252 4.33678 2.61438 4.51253C2.45623 4.68829 2.40993 4.94512 2.31731 5.45877C1.32623 10.9553 3.49246 16.037 8.65863 18.0149C9.21371 18.2274 9.49121 18.3337 10.0013 18.3337C10.5113 18.3337 10.7889 18.2274 11.3439 18.0149C16.5097 16.0369 18.6739 10.9553 17.6825 5.45877C17.5899 4.94503 17.5435 4.68816 17.3854 4.5124C17.2272 4.33664 16.8365 4.21203 16.055 3.96282C14.1321 3.34962 12.5051 1.66699 9.99854 1.66699Z" stroke="#141B34" stroke-width="1.5" stroke-linecap="round" stroke-linejoin="round"/>
  <path d="M10 5.8335V7.50016" stroke="#141B34" stroke-width="1.5" stroke-linecap="round"/>
</svg>