<svg xmlns="http://www.w3.org/2000/svg" width="21" height="20" viewBox="0 0 21 20" fill="none">
  <path d="M18.8334 10.0001C18.8334 14.6024 15.1024 18.3334 10.5 18.3334C5.89764 18.3334 2.16669 14.6024 2.16669 10.0001C2.16669 5.39771 5.89764 1.66675 10.5 1.66675C15.1024 1.66675 18.8334 5.39771 18.8334 10.0001Z" stroke="#231F20" stroke-width="1.2"/>
  <path d="M12.7916 7.91667C12.7916 9.18233 11.7656 10.2083 10.5 10.2083C9.23431 10.2083 8.20831 9.18233 8.20831 7.91667C8.20831 6.65102 9.23431 5.625 10.5 5.625C11.7656 5.625 12.7916 6.65102 12.7916 7.91667Z" stroke="#231F20" stroke-width="1.2"/>
  <path d="M5.08331 15.8334L5.55031 15.0162C6.29215 13.718 7.67275 12.9167 9.16803 12.9167H11.8319C13.3272 12.9167 14.7078 13.718 15.4496 15.0162L15.9166 15.8334" stroke="#231F20" stroke-width="1.2" stroke-linecap="round" stroke-linejoin="round"/>
</svg>