<svg xmlns="http://www.w3.org/2000/svg" width="20" height="20" viewBox="0 0 20 20" fill="none">
  <g clip-path="url(#clip0_294_12343)">
    <path d="M10 18.3333L8.33334 13.3333H1.66667L3.33334 18.3333H10ZM10 18.3333H13.3333" stroke="black" stroke-width="1.5" stroke-linecap="round" stroke-linejoin="round"/>
    <path d="M9.99999 10.8333V10.4166C9.99999 8.84525 9.99999 8.05956 9.51183 7.57141C9.02366 7.08325 8.23801 7.08325 6.66666 7.08325C5.09531 7.08325 4.30964 7.08325 3.82149 7.57141C3.33333 8.05956 3.33333 8.84525 3.33333 10.4166V10.8333" stroke="black" stroke-width="1.5" stroke-linecap="round" stroke-linejoin="round"/>
    <path d="M15.8333 10.8334C15.8333 11.7539 15.0872 12.5001 14.1667 12.5001C13.2462 12.5001 12.5 11.7539 12.5 10.8334C12.5 9.91291 13.2462 9.16675 14.1667 9.16675C15.0872 9.16675 15.8333 9.91291 15.8333 10.8334Z" stroke="black" stroke-width="1.5"/>
    <path d="M8.33333 3.33341C8.33333 4.25389 7.58714 5.00008 6.66667 5.00008C5.74619 5.00008 5 4.25389 5 3.33341C5 2.41294 5.74619 1.66675 6.66667 1.66675C7.58714 1.66675 8.33333 2.41294 8.33333 3.33341Z" stroke="black" stroke-width="1.5"/>
    <path d="M11.6667 14.5833H16.6667C17.5872 14.5833 18.3333 15.3294 18.3333 16.2499V16.6666C18.3333 17.5871 17.5872 18.3333 16.6667 18.3333H15.8333" stroke="black" stroke-width="1.5" stroke-linecap="round"/>
  </g>
  <defs>
    <clipPath id="clip0_294_12343">
      <rect width="20" height="20" fill="white"/>
    </clipPath>
  </defs>
</svg>