<svg xmlns="http://www.w3.org/2000/svg" width="20" height="20" viewBox="0 0 20 20" fill="none">
  <path d="M14.3346 1.66675H5.66569C4.45089 1.66675 3.38508 2.48733 3.33639 3.66971C3.27514 5.15741 4.32143 6.14526 5.42035 7.07266C6.94057 8.35558 7.70069 8.99708 7.78041 9.80908C7.79289 9.93616 7.79289 10.064 7.78041 10.1911C7.70069 11.0031 6.94058 11.6446 5.42035 12.9275C4.29116 13.8804 3.27198 14.7663 3.33639 16.3304C3.38508 17.5128 4.45089 18.3334 5.66569 18.3334H14.3346C15.5493 18.3334 16.6151 17.5128 16.6638 16.3304C16.7026 15.3891 16.3537 14.4517 15.6127 13.8001C15.2749 13.5029 14.9241 13.218 14.5799 12.9275C13.0596 11.6446 12.2996 11.0031 12.2198 10.1911C12.2073 10.064 12.2073 9.93616 12.2198 9.80908C12.2996 8.99708 13.0596 8.35558 14.5799 7.07266C15.6972 6.12973 16.7275 5.21516 16.6638 3.66971C16.6151 2.48733 15.5493 1.66675 14.3346 1.66675Z" stroke="#545452" stroke-width="1.5"/>
  <path d="M7.5 18.0317C7.5 17.6634 7.5 17.4793 7.573 17.3183C7.58459 17.2928 7.59749 17.2678 7.61166 17.2435C7.70084 17.0908 7.85176 16.9829 8.1536 16.7673C8.99208 16.1683 9.41125 15.8688 9.88767 15.837C9.9625 15.832 10.0375 15.832 10.1123 15.837C10.5887 15.8688 11.0079 16.1683 11.8464 16.7673C12.1483 16.9829 12.2992 17.0908 12.3883 17.2435C12.4025 17.2678 12.4154 17.2928 12.427 17.3183C12.5 17.4793 12.5 17.6634 12.5 18.0317V18.3333H7.5V18.0317Z" stroke="#545452" stroke-width="1.5" stroke-linecap="round"/>
</svg>