<svg xmlns="http://www.w3.org/2000/svg" width="20" height="20" viewBox="0 0 20 20" fill="none">
  <path fill-rule="evenodd" clip-rule="evenodd" d="M8.81689 2.58769C8.85092 2.48561 8.94646 2.41675 9.05406 2.41675H10.9459C11.0535 2.41675 11.149 2.48561 11.183 2.58769L11.6575 4.01096C11.8042 4.45127 12.1199 4.81525 12.535 5.02281L13.4607 5.48566C13.8759 5.69322 14.3565 5.72738 14.7968 5.58061L16.081 5.15252C16.199 5.11318 16.328 5.16661 16.3837 5.27789L17.3009 7.11242C17.3537 7.21786 17.3256 7.3458 17.2335 7.41944L16.1568 8.28085C15.7416 8.61295 15.5 9.11575 15.5 9.64737V10.3528C15.5 10.8844 15.7416 11.3872 16.1568 11.7193L17.2335 12.5807C17.3256 12.6544 17.3537 12.7823 17.3009 12.8877L16.3837 14.7223C16.328 14.8336 16.199 14.887 16.081 14.8476L14.9009 14.4543C14.3561 14.2727 13.7569 14.3699 13.2975 14.7145L12.2743 15.4818C12.0175 15.6744 11.8187 15.9339 11.6995 16.2319L11.2217 17.4263C11.1838 17.5212 11.0918 17.5834 10.9896 17.5834H9.01034C8.90811 17.5834 8.81618 17.5212 8.77822 17.4263L8.30047 16.2319C8.18127 15.9339 7.98241 15.6744 7.72564 15.4818L6.70247 14.7145C6.24306 14.3699 5.64385 14.2727 5.09907 14.4543L3.91892 14.8476C3.80089 14.887 3.6719 14.8336 3.61626 14.7223L2.75159 12.9929C2.69317 12.8761 2.73456 12.734 2.84657 12.6668L3.65034 12.1845C4.17745 11.8682 4.49997 11.2986 4.49997 10.6839V9.64737C4.49997 9.11575 4.25831 8.61295 3.84319 8.28085L2.76643 7.41944C2.67437 7.3458 2.64627 7.21786 2.69899 7.11242L3.61626 5.27789C3.6719 5.16661 3.80089 5.11318 3.91892 5.15252L5.20318 5.58061C5.64349 5.72738 6.12407 5.69322 6.5392 5.48566L7.4649 5.02281C7.88003 4.81525 8.1957 4.45127 8.34247 4.01096L8.81689 2.58769ZM9.05406 0.916748C8.30081 0.916748 7.63207 1.39875 7.39387 2.11335L6.91944 3.53662C6.89848 3.59952 6.85338 3.65152 6.79408 3.68117L5.86838 4.14402C5.80907 4.17367 5.74042 4.17855 5.67752 4.15758L4.39326 3.7295C3.56707 3.4541 2.66409 3.82812 2.27462 4.60707L1.35735 6.4416C0.988314 7.17968 1.18502 8.07525 1.82938 8.59075L2.90614 9.45216C2.96545 9.4996 2.99997 9.57143 2.99997 9.64737V10.6839C2.99997 10.7717 2.9539 10.8531 2.87859 10.8983L2.07483 11.3805C1.29071 11.851 1.001 12.8459 1.40995 13.6638L2.27462 15.3931C2.66409 16.172 3.56707 16.5461 4.39326 16.2707L5.57341 15.8773C5.65124 15.8513 5.73684 15.8652 5.80247 15.9145L6.82564 16.6818C6.86232 16.7093 6.89073 16.7464 6.90776 16.789L7.3855 17.9833C7.65126 18.6478 8.29475 19.0834 9.01034 19.0834H10.9896C11.7052 19.0834 12.3487 18.6478 12.6144 17.9833L13.0922 16.789C13.1092 16.7464 13.1376 16.7093 13.1743 16.6818L14.1975 15.9145C14.2631 15.8652 14.3487 15.8513 14.4265 15.8773L15.6067 16.2707C16.4329 16.5461 17.3358 16.172 17.7253 15.3931L18.6426 13.5586C19.0116 12.8205 18.8149 11.9249 18.1706 11.4094L17.0938 10.548C17.0345 10.5006 17 10.4287 17 10.3528V9.64737C17 9.57143 17.0345 9.4996 17.0938 9.45216L18.1706 8.59075C18.8149 8.07525 19.0116 7.17968 18.6426 6.4416L17.7253 4.60707C17.3359 3.82812 16.4329 3.4541 15.6067 3.7295L14.3224 4.15758C14.2595 4.17855 14.1909 4.17367 14.1316 4.14402L13.2059 3.68117C13.1466 3.65152 13.1015 3.59952 13.0805 3.53662L12.6061 2.11335C12.3679 1.39875 11.6991 0.916748 10.9459 0.916748H9.05406ZM12.5 10.0001C12.5 11.3808 11.3807 12.5001 9.99997 12.5001C8.61926 12.5001 7.49997 11.3808 7.49997 10.0001C7.49997 8.61937 8.61926 7.50008 9.99997 7.50008C11.3807 7.50008 12.5 8.61937 12.5 10.0001Z" fill="#1A1718"/>
</svg>