<svg xmlns="http://www.w3.org/2000/svg" width="25" height="24" viewBox="0 0 25 24" fill="none">
  <path d="M18.5 7C19.2745 7.16058 19.8588 7.42859 20.3284 7.87589C21.5 8.99181 21.5 10.7879 21.5 14.38C21.5 17.9721 21.5 19.7681 20.3284 20.8841C19.1569 22 17.2712 22 13.5 22H11.5C7.72876 22 5.84315 22 4.67157 20.8841C3.5 19.7681 3.5 17.9721 3.5 14.38C3.5 10.7879 3.5 8.99181 4.67157 7.87589C5.14118 7.42859 5.7255 7.16058 6.5 7" stroke="#1A1718" stroke-width="1.5" stroke-linecap="round"/>
  <path d="M12.5253 2.00052L12.5 14M12.5253 2.00052C12.3627 1.99379 12.1991 2.05191 12.0533 2.17492C11.1469 2.94006 9.5 4.92886 9.5 4.92886M12.5253 2.00052C12.6711 2.00657 12.8162 2.06476 12.9468 2.17508C13.8531 2.94037 15.5 4.92886 15.5 4.92886" stroke="#1A1718" stroke-width="1.5" stroke-linecap="round" stroke-linejoin="round"/>
</svg>