<svg xmlns="http://www.w3.org/2000/svg" width="20" height="21" viewBox="0 0 20 21" fill="none">
  <path d="M14.1667 9.50375C14.1667 9.21567 14.1667 9.07167 14.21 8.94333C14.336 8.57037 14.6682 8.42563 15.0009 8.27407C15.375 8.10368 15.562 8.01849 15.7474 8.0035C15.9578 7.98648 16.1685 8.03182 16.3484 8.13274C16.5868 8.26653 16.753 8.52078 16.9233 8.72752C17.7094 9.68233 18.1024 10.1598 18.2463 10.6863C18.3624 11.1112 18.3624 11.5555 18.2463 11.9803C18.0365 12.7483 17.3738 13.392 16.8832 13.9878C16.6323 14.2926 16.5068 14.445 16.3484 14.5339C16.1685 14.6348 15.9578 14.6802 15.7474 14.6632C15.562 14.6482 15.375 14.563 15.0009 14.3926C14.6682 14.241 14.336 14.0963 14.21 13.7233C14.1667 13.595 14.1667 13.451 14.1667 13.1629V9.50375Z" stroke="black" stroke-width="1.2"/>
  <path d="M5.83335 9.50384C5.83335 9.14117 5.82317 8.81518 5.52994 8.56017C5.42329 8.46742 5.28189 8.40301 4.99911 8.27421C4.62503 8.10382 4.43799 8.01863 4.25265 8.00364C3.69661 7.95867 3.39745 8.33818 3.0768 8.72765C2.29065 9.6825 1.89757 10.1599 1.75374 10.6864C1.63767 11.1113 1.63767 11.5557 1.75374 11.9805C1.96352 12.7484 2.62629 13.3921 3.11686 13.988C3.4261 14.3636 3.72149 14.7063 4.25265 14.6633C4.43799 14.6483 4.62503 14.5631 4.99911 14.3928C5.28189 14.2639 5.42329 14.1995 5.52994 14.1068C5.82317 13.8518 5.83335 13.5258 5.83335 13.1631V9.50384Z" stroke="black" stroke-width="1.2"/>
  <path d="M4.16669 8C4.16669 5.23857 6.77836 3 10 3C13.2217 3 15.8334 5.23857 15.8334 8" stroke="black" stroke-width="1.2" stroke-linecap="square" stroke-linejoin="round"/>
  <path d="M15.8333 14.6667V15.3334C15.8333 16.8062 14.3409 18.0001 12.5 18.0001H10.8333" stroke="black" stroke-width="1.2" stroke-linecap="round" stroke-linejoin="round"/>
</svg>