<svg xmlns="http://www.w3.org/2000/svg" width="20" height="20" viewBox="0 0 20 20" fill="none">
  <path fill-rule="evenodd" clip-rule="evenodd" d="M8.24996 5.83325C8.24996 4.86675 9.03346 4.08325 9.99996 4.08325C10.9665 4.08325 11.75 4.86675 11.75 5.83325C11.75 6.79975 10.9665 7.58325 9.99996 7.58325C9.03346 7.58325 8.24996 6.79975 8.24996 5.83325ZM9.99996 2.58325C8.20503 2.58325 6.74996 4.03833 6.74996 5.83325C6.74996 7.62818 8.20503 9.08325 9.99996 9.08325C11.7949 9.08325 13.25 7.62818 13.25 5.83325C13.25 4.03833 11.7949 2.58325 9.99996 2.58325ZM10.2243 11.5833C12.7303 11.5833 14.7931 13.4803 15.0552 15.9166H4.94473C5.2068 13.4803 7.26966 11.5833 9.7756 11.5833H10.2243ZM9.7756 10.0833C6.26364 10.0833 3.41663 12.9303 3.41663 16.4422C3.41663 16.9803 3.85286 17.4166 4.39098 17.4166H15.6089C16.1471 17.4166 16.5833 16.9803 16.5833 16.4422C16.5833 12.9303 13.7363 10.0833 10.2243 10.0833H9.7756Z" fill="#1A1718"/>
</svg>