<svg xmlns="http://www.w3.org/2000/svg" width="20" height="20" viewBox="0 0 20 20" fill="none">
  <path d="M8.33333 11.1111C8.33333 10.8527 8.33333 10.7236 8.36174 10.6177C8.43874 10.3301 8.66341 10.1054 8.951 10.0284C9.05691 10 9.18608 10 9.44441 10H10.5556C10.8139 10 10.9431 10 11.049 10.0284C11.3366 10.1054 11.5612 10.3301 11.6382 10.6177C11.6667 10.7236 11.6667 10.8527 11.6667 11.1111V11.6667C11.6667 12.5872 10.9205 13.3333 9.99999 13.3333C9.07949 13.3333 8.33333 12.5872 8.33333 11.6667V11.1111Z" stroke="#414141" stroke-width="1.5" stroke-linecap="round" stroke-linejoin="round"/>
  <path d="M11.5833 11.2501H12.5688C13.639 11.2501 14.1741 11.2501 14.6297 11.1536C15.9483 10.8742 17.0242 10.0173 17.4949 8.87133C17.6576 8.47542 17.7239 7.99635 17.8567 7.03816C17.9065 6.67846 17.9314 6.49861 17.9075 6.35149C17.8377 5.92303 17.4943 5.57206 17.0318 5.45645C16.8729 5.41675 16.6721 5.41675 16.2703 5.41675H3.72969C3.32793 5.41675 3.12705 5.41675 2.96823 5.45645C2.50569 5.57206 2.16232 5.92303 2.09254 6.35149C2.06858 6.49861 2.0935 6.67846 2.14332 7.03816C2.27607 7.99635 2.34244 8.47542 2.50508 8.87133C2.97584 10.0173 4.05166 10.8742 5.37031 11.1536C5.82588 11.2501 6.36099 11.2501 7.4312 11.2501H8.41667" stroke="#414141" stroke-width="1.5"/>
  <path d="M2.91667 9.58325V11.2499C2.91667 14.3926 2.91667 15.964 3.83875 16.9403C4.76081 17.9166 6.24486 17.9166 9.21301 17.9166H10.787C13.7552 17.9166 15.2392 17.9166 16.1613 16.9403C17.0833 15.964 17.0833 14.3926 17.0833 11.2499V9.58325" stroke="#414141" stroke-width="1.5" stroke-linecap="round" stroke-linejoin="round"/>
  <path d="M12.9167 5.41659L12.8522 5.12224C12.5314 3.65553 12.371 2.92218 11.9891 2.50271C11.6072 2.08325 11.0999 2.08325 10.0852 2.08325H9.91475C8.90008 2.08325 8.39283 2.08325 8.0109 2.50271C7.62898 2.92218 7.46856 3.65553 7.14772 5.12224L7.08333 5.41659" stroke="#414141" stroke-width="1.5"/>
</svg>